<?xml version="1.0" encoding="UTF-8" standalone="no"?>
<!-- Created with Inkscape (http://www.inkscape.org/) -->

<svg
   xmlns:dc="http://purl.org/dc/elements/1.1/"
   xmlns:cc="http://creativecommons.org/ns#"
   xmlns:rdf="http://www.w3.org/1999/02/22-rdf-syntax-ns#"
   xmlns:svg="http://www.w3.org/2000/svg"
   xmlns="http://www.w3.org/2000/svg"
   xmlns:sodipodi="http://sodipodi.sourceforge.net/DTD/sodipodi-0.dtd"
   xmlns:inkscape="http://www.inkscape.org/namespaces/inkscape"
   width="19.2537mm"
   height="35.857555mm"
   viewBox="0 0 68.221773 127.05433"
   id="svg2"
   version="1.1"
   inkscape:version="0.91 r13725"
   sodipodi:docname="squirton.svg">
  <defs
     id="defs4" />
  <sodipodi:namedview
     id="base"
     pagecolor="#ffffff"
     bordercolor="#666666"
     borderopacity="1.0"
     inkscape:pageopacity="0.0"
     inkscape:pageshadow="2"
     inkscape:zoom="6.3600733"
     inkscape:cx="42.323554"
     inkscape:cy="67.416632"
     inkscape:document-units="px"
     inkscape:current-layer="layer1"
     showgrid="false"
     fit-margin-top="0"
     fit-margin-left="0"
     fit-margin-right="0"
     fit-margin-bottom="0"
     inkscape:window-width="1920"
     inkscape:window-height="1017"
     inkscape:window-x="-8"
     inkscape:window-y="-8"
     inkscape:window-maximized="1" />
  <metadata
     id="metadata7">
    <rdf:RDF>
      <cc:Work
         rdf:about="">
        <dc:format>image/svg+xml</dc:format>
        <dc:type
           rdf:resource="http://purl.org/dc/dcmitype/StillImage" />
        <dc:title></dc:title>
      </cc:Work>
    </rdf:RDF>
  </metadata>
  <g
     inkscape:label="Layer 1"
     inkscape:groupmode="layer"
     id="layer1"
     transform="translate(-163.68131,-96.737974)">
    <rect
       style="fill:#ffd42a;fill-opacity:0.39215686;stroke:#000000;stroke-width:1.82165289;stroke-miterlimit:4;stroke-dasharray:none;stroke-opacity:1"
       id="rect4136"
       width="88.020119"
       height="15.354035"
       x="-129.58115"
       y="240.85965"
       transform="matrix(0.40673664,-0.91354546,0.91354546,0.40673664,0,0)" />
    <rect
       style="fill:#000000;fill-opacity:0.39215686;stroke:#000000;stroke-width:1.82165289;stroke-miterlimit:4;stroke-dasharray:none;stroke-opacity:1"
       id="rect4138"
       width="43.640228"
       height="6.1416144"
       x="-41.561039"
       y="245.46585"
       transform="matrix(0.40673664,-0.91354546,0.91354546,0.40673664,0,0)" />
    <path
       style="fill:none;fill-rule:evenodd;stroke:#000000;stroke-width:3.46114016;stroke-linecap:butt;stroke-linejoin:miter;stroke-miterlimit:4;stroke-dasharray:none;stroke-opacity:1"
       d="m 189.89449,165.66591 -15.53474,8.4671 -8.82425,17.93212 5.10467,16.84671 z"
       id="path4140"
       inkscape:connector-curvature="0"
       sodipodi:nodetypes="ccccc" />
    <path
       style="fill:#ffd42a;fill-opacity:0.39215686;stroke:#000000;stroke-width:0.89621603;stroke-miterlimit:4;stroke-dasharray:none;stroke-opacity:1"
       d="m 11.085162,121.84446 c -3.2842636,-1.46236 -5.9925426,-2.72229 -6.0183982,-2.79986 -0.025856,-0.0776 0.2296089,-0.73661 0.5676986,-1.46454 0.6144343,-1.32293 0.6147898,-1.32331 0.7963134,-0.86553 0.1001468,0.25256 0.2376011,0.39361 0.3064445,0.31446 0.1550337,-0.17824 23.1350617,-51.826093 23.1342407,-51.994448 -3.14e-4,-0.06708 -0.22317,-0.0069 -0.495206,0.133813 -0.378472,0.195714 -0.475444,0.205894 -0.412981,0.04334 0.285124,-0.741976 10.870371,-24.449392 10.960299,-24.547406 0.06127,-0.06678 2.840733,1.092144 6.17658,2.57539 l 6.065176,2.696811 -0.180377,0.423729 C 50.77578,49.200738 17.192476,124.50487 17.135165,124.5042 c -0.04324,-4.7e-4 -2.76574,-1.19739 -6.050003,-2.65975 z"
       id="path4148"
       inkscape:connector-curvature="0"
       transform="translate(163.68131,96.737974)" />
    <path
       style="fill:#ffd42a;fill-opacity:0.39215686;stroke:#000000;stroke-width:0.89621603;stroke-miterlimit:4;stroke-dasharray:none;stroke-opacity:1"
       d="m 12.261007,121.78765 c -2.551071,-1.14696 -5.0789653,-2.29464 -5.6175426,-2.5504 l -0.9792315,-0.46501 0.3025546,-0.66654 c 0.1909868,-0.42075 0.3798066,-0.63689 0.5120503,-0.58615 0.1152227,0.0442 0.3321919,-0.01 0.4821538,-0.11961 0.3185886,-0.23371 0.9412222,-1.60593 11.8621784,-26.143109 9.612811,-21.598044 11.51939,-25.940629 11.51939,-26.237553 0,-0.119541 -0.101414,-0.301516 -0.225366,-0.404385 -0.192479,-0.159744 -0.149732,-0.363312 0.292931,-1.395022 0.831294,-1.937481 9.708358,-21.798823 9.774351,-21.868909 0.100162,-0.106377 10.850746,4.577279 11.116572,4.843106 0.13818,0.13818 -6.795251,15.82043 -24.893448,56.304772 -2.184224,4.88595 -5.156289,11.67573 -6.60459,15.0884 -1.4483,3.41268 -2.694117,6.22307 -2.768482,6.24533 -0.07437,0.0223 -2.22245,-0.89796 -4.773521,-2.04492 z"
       id="path4150"
       inkscape:connector-curvature="0"
       transform="translate(163.68131,96.737974)" />
    <path
       style="fill:#ffd42a;fill-opacity:0.39215686;stroke:#000000;stroke-width:0.89621603;stroke-miterlimit:4;stroke-dasharray:none;stroke-opacity:1"
       d="m 12.654084,121.38705 c -5.6782775,-2.55657 -6.2438486,-2.8304 -6.1856211,-2.99482 0.029489,-0.0833 0.3012554,-0.31702 0.6039249,-0.51942 0.6692762,-0.44758 0.7720323,-0.67001 12.7310752,-27.559365 11.731152,-26.37695 11.222667,-25.16854 10.871269,-25.83551 -0.100497,-0.190748 0.123436,-0.858512 0.800621,-2.387435 2.05037,-4.629239 8.80919,-19.744098 8.91003,-19.925643 0.103607,-0.186527 2.909226,0.954701 8.396282,3.415315 1.659789,0.744315 1.840796,0.864538 1.750217,1.162475 C 50.34303,47.363824 44.539816,60.549732 37.653117,76.005434 24.196278,106.20639 22.74422,109.48225 19.832809,116.20826 c -1.805105,4.1702 -3.035476,6.82107 -3.175921,6.84261 -0.126094,0.0194 -1.927356,-0.72937 -4.002804,-1.66382 z"
       id="path4152"
       inkscape:connector-curvature="0"
       transform="translate(163.68131,96.737974)" />
    <path
       style="fill:#ffd42a;fill-opacity:0.39215686;stroke:#000000;stroke-width:0.89621603;stroke-miterlimit:4;stroke-dasharray:none;stroke-opacity:1"
       d="M 46.851803,41.409948 C 45.676359,40.87418 45.061148,40.510733 45.09366,40.371292 45.174962,40.022591 61.786433,2.7528762 61.910822,2.6400856 62.095703,2.4724447 65.647016,4.1550142 65.594131,4.3851928 65.517514,4.7186641 48.886794,42.035202 48.768609,42.138833 c -0.05976,0.0524 -0.92232,-0.2756 -1.916806,-0.728885 z"
       id="path4154"
       inkscape:connector-curvature="0"
       transform="translate(163.68131,96.737974)" />
  </g>
</svg>
